<svg width="1000" height="518" viewBox="0 0 1000 518" fill="none" xmlns="http://www.w3.org/2000/svg">
<g clip-path="url(#clip0_1868_114)">
<path d="M270.7 337.2C274.7 337.2 278 338.6 280.8 341.4C283.6 344.2 285 347.6 285 351.5V401.1H234.3C230.3 401.1 227 399.7 224.2 396.9C221.4 394.1 220 390.7 220 386.8V363.2H273.1V351.5C273.1 350.8 272.9 350.3 272.4 349.8C271.9 349.3 271.4 349.1 270.7 349.1H220V337.2H270.7ZM273.1 389.2V375.1H231.9V386.8C231.9 387.5 232.1 388 232.6 388.5C233.1 389 233.6 389.2 234.3 389.2H273.1ZM387.8 337.2H400.5L376.5 401.1H366.8L345.3 353.6L325 401.1L324.8 401L324.9 401.1H315.3L290.2 337.2H302.8L320.1 379.6L338.5 337.2H352.1L371.6 379.6L387.8 337.2ZM455 337.2C459 337.2 462.3 338.6 465.1 341.4C467.9 344.2 469.3 347.6 469.3 351.5V375.1H416.2V386.8C416.2 387.5 416.4 388 416.9 388.5C417.4 389 417.9 389.2 418.6 389.2H469.3V401.1H418.6C414.6 401.1 411.3 399.7 408.5 396.9C405.7 394.1 404.3 390.7 404.3 386.8V351.5C404.3 347.5 405.7 344.2 408.5 341.4C411.3 338.6 414.7 337.2 418.6 337.2H455ZM416.2 363.2H457.4V351.5C457.4 350.8 457.2 350.3 456.7 349.8C456.2 349.3 455.7 349.1 455 349.1H418.6C417.9 349.1 417.4 349.3 416.9 349.8C416.4 350.3 416.2 350.8 416.2 351.5V363.2ZM545.2 351.6V354H533.3V351.6C533.3 350.9 533.1 350.4 532.6 349.9C532.1 349.4 531.6 349.2 530.9 349.2H494.5C493.8 349.2 493.3 349.4 492.8 349.9C492.3 350.4 492.1 350.9 492.1 351.6V360.9C492.1 361.6 492.3 362.1 492.8 362.6C493.3 363.1 493.8 363.3 494.5 363.3H530.9C534.9 363.3 538.2 364.7 541 367.5C543.8 370.3 545.2 373.7 545.2 377.6V386.9C545.2 390.9 543.8 394.2 541 397C538.2 399.8 534.8 401.2 530.9 401.2H494.5C490.5 401.2 487.2 399.8 484.4 397C481.6 394.2 480.2 390.8 480.2 386.9V384.5H492.1V386.9C492.1 387.6 492.3 388.1 492.8 388.6C493.3 389.1 493.8 389.3 494.5 389.3H530.9C531.6 389.3 532.1 389.1 532.6 388.6C533.1 388.1 533.3 387.6 533.3 386.9V377.6C533.3 376.9 533.1 376.4 532.6 375.9C532.1 375.4 531.6 375.2 530.9 375.2H494.5C490.5 375.2 487.2 373.8 484.4 371C481.6 368.2 480.2 364.8 480.2 360.9V351.6C480.2 347.6 481.6 344.3 484.4 341.5C487.2 338.7 490.6 337.3 494.5 337.3H530.9C534.9 337.3 538.2 338.7 541 341.5C543.8 344.2 545.2 347.6 545.2 351.6ZM570.4 337.2H606.8C610.8 337.2 614.1 338.6 616.9 341.4C619.7 344.2 621.1 347.6 621.1 351.5V386.8C621.1 390.8 619.7 394.1 616.9 396.9C614.1 399.7 610.7 401.1 606.8 401.1H570.4C566.4 401.1 563.1 399.7 560.3 396.9C557.5 394.1 556.1 390.7 556.1 386.8V351.5C556.1 347.5 557.5 344.2 560.3 341.4C563.1 338.6 566.5 337.2 570.4 337.2ZM606.8 349.1H570.4C569.7 349.1 569.2 349.3 568.7 349.8C568.2 350.3 568 350.8 568 351.5V386.8C568 387.5 568.2 388 568.7 388.5C569.2 389 569.7 389.2 570.4 389.2H606.8C607.5 389.2 608 389 608.5 388.5C609 388 609.2 387.5 609.2 386.8V351.5C609.2 350.8 609 350.3 608.5 349.8C608 349.4 607.5 349.1 606.8 349.1ZM714.3 337.2C718.3 337.2 721.6 338.6 724.4 341.4C727.2 344.2 728.6 347.6 728.6 351.5V401.1H716.8V351.5C716.8 350.8 716.6 350.3 716.1 349.8C715.6 349.3 715 349.1 714.3 349.1H689.1C688.4 349.1 687.9 349.3 687.4 349.8C686.9 350.3 686.7 350.8 686.7 351.5V401.1H674.8V351.5C674.8 350.8 674.6 350.3 674.1 349.8C673.6 349.3 673.1 349.1 672.4 349.1H647.1C646.4 349.1 645.9 349.3 645.4 349.8C644.9 350.3 644.7 350.8 644.7 351.5V401.1H632.8V337.2H714.3ZM790.8 337.2C794.8 337.2 798.1 338.6 800.9 341.4C803.7 344.2 805.1 347.6 805.1 351.5V375.1H752V386.8C752 387.5 752.2 388 752.7 388.5C753.2 389 753.7 389.2 754.4 389.2H805.1V401.1H754.4C750.4 401.1 747.1 399.7 744.3 396.9C741.5 394.1 740.1 390.7 740.1 386.8V351.5C740.1 347.5 741.5 344.2 744.3 341.4C747.1 338.6 750.5 337.2 754.4 337.2H790.8ZM752 363.2H793.2V351.5C793.2 350.8 793 350.3 792.5 349.8C792 349.3 791.5 349.1 790.8 349.1H754.4C753.7 349.1 753.2 349.3 752.7 349.8C752.2 350.3 752 350.8 752 351.5V363.2Z" fill="#494368"/>
<path d="M806 152.1L656 14.5004L634.9 37.5004L759.9 152.1H267.2L392.2 37.4004L371.1 14.4004L221.1 152.1H221V242.8C221 283.8 260.5 317.2 309 317.2H401.5C450 317.2 489.5 283.8 489.5 242.8V183.2H537.5V242.8C537.5 283.8 577 317.2 625.5 317.2H718C766.5 317.2 806 283.8 806 242.8V152.1Z" fill="#346CAC"/>
<path d="M806 152.1L656 14.5004L634.9 37.5004L759.9 152.1H267.2L392.2 37.4004L371.1 14.4004L221.1 152.1H221V242.8C221 283.8 260.5 317.2 309 317.2H401.5C450 317.2 489.5 283.8 489.5 242.8V183.2H537.5V242.8C537.5 283.8 577 317.2 625.5 317.2H718C766.5 317.2 806 283.8 806 242.8V152.1Z" fill="url(#paint0_linear_1868_114)"/>
<path d="M204.13 475C202.09 475 200.248 474.49 198.605 473.47C196.962 472.45 195.63 471.118 194.61 469.475C193.59 467.832 193.08 465.99 193.08 463.95V462.675H202.26V463.695C202.26 464.262 202.458 464.772 202.855 465.225C203.308 465.622 203.818 465.82 204.385 465.82H231.925C232.492 465.82 232.973 465.622 233.37 465.225C233.767 464.772 233.965 464.262 233.965 463.695V457.065C233.965 456.498 233.767 456.017 233.37 455.62C232.973 455.167 232.492 454.94 231.925 454.94H204.13C202.09 454.94 200.248 454.458 198.605 453.495C196.962 452.475 195.63 451.143 194.61 449.5C193.59 447.8 193.08 445.93 193.08 443.89V436.75C193.08 434.71 193.59 432.868 194.61 431.225C195.63 429.582 196.962 428.25 198.605 427.23C200.248 426.21 202.09 425.7 204.13 425.7H232.18C234.22 425.7 236.062 426.21 237.705 427.23C239.405 428.25 240.737 429.582 241.7 431.225C242.72 432.868 243.23 434.71 243.23 436.75V438.025H233.965V437.005C233.965 436.438 233.767 435.957 233.37 435.56C232.973 435.107 232.492 434.88 231.925 434.88H204.385C203.818 434.88 203.308 435.107 202.855 435.56C202.458 435.957 202.26 436.438 202.26 437.005V443.635C202.26 444.202 202.458 444.712 202.855 445.165C203.308 445.562 203.818 445.76 204.385 445.76H232.18C234.22 445.76 236.062 446.27 237.705 447.29C239.405 448.253 240.737 449.585 241.7 451.285C242.72 452.928 243.23 454.77 243.23 456.81V463.95C243.23 465.99 242.72 467.832 241.7 469.475C240.737 471.118 239.405 472.45 237.705 473.47C236.062 474.49 234.22 475 232.18 475H204.13ZM260.996 475C258.956 475 257.115 474.49 255.471 473.47C253.828 472.45 252.496 471.118 251.476 469.475C250.456 467.832 249.946 465.99 249.946 463.95V436.75C249.946 434.71 250.456 432.868 251.476 431.225C252.496 429.582 253.828 428.25 255.471 427.23C257.115 426.21 258.956 425.7 260.996 425.7H299.926V434.88H261.251C260.685 434.88 260.175 435.107 259.721 435.56C259.325 435.957 259.126 436.438 259.126 437.005V463.695C259.126 464.262 259.325 464.772 259.721 465.225C260.175 465.622 260.685 465.82 261.251 465.82H300.096V475H260.996ZM309.133 475V425.7H318.313V475H309.133ZM309.133 418.73V409.55H318.313V418.73H309.133ZM338.775 475C336.735 475 334.893 474.49 333.25 473.47C331.606 472.45 330.275 471.118 329.255 469.475C328.235 467.832 327.725 465.99 327.725 463.95V436.75C327.725 434.71 328.235 432.868 329.255 431.225C330.275 429.582 331.606 428.25 333.25 427.23C334.893 426.21 336.735 425.7 338.775 425.7H366.825C368.865 425.7 370.706 426.21 372.35 427.23C374.05 428.193 375.381 429.525 376.345 431.225C377.365 432.925 377.875 434.767 377.875 436.75V454.94H336.905V463.695C336.905 464.262 337.103 464.772 337.5 465.225C337.953 465.622 338.463 465.82 339.03 465.82H377.875V475H338.775ZM336.905 446.355H368.61V437.005C368.61 436.438 368.411 435.957 368.015 435.56C367.618 435.107 367.136 434.88 366.57 434.88H339.03C338.463 434.88 337.953 435.107 337.5 435.56C337.103 435.957 336.905 436.438 336.905 437.005V446.355ZM386.832 475V425.7H425.932C427.972 425.7 429.814 426.21 431.457 427.23C433.157 428.25 434.489 429.582 435.452 431.225C436.472 432.868 436.982 434.71 436.982 436.75V475H427.802V437.005C427.802 436.438 427.576 435.957 427.122 435.56C426.726 435.107 426.244 434.88 425.677 434.88H398.137C397.571 434.88 397.061 435.107 396.607 435.56C396.211 435.957 396.012 436.438 396.012 437.005V475H386.832ZM454.986 475C452.946 475 451.104 474.49 449.461 473.47C447.817 472.45 446.486 471.118 445.466 469.475C444.446 467.832 443.936 465.99 443.936 463.95V436.75C443.936 434.71 444.446 432.868 445.466 431.225C446.486 429.582 447.817 428.25 449.461 427.23C451.104 426.21 452.946 425.7 454.986 425.7H493.916V434.88H455.241C454.674 434.88 454.164 435.107 453.711 435.56C453.314 435.957 453.116 436.438 453.116 437.005V463.695C453.116 464.262 453.314 464.772 453.711 465.225C454.164 465.622 454.674 465.82 455.241 465.82H494.086V475H454.986ZM511.929 475C509.889 475 508.047 474.49 506.404 473.47C504.761 472.45 503.429 471.118 502.409 469.475C501.389 467.832 500.879 465.99 500.879 463.95V436.75C500.879 434.71 501.389 432.868 502.409 431.225C503.429 429.582 504.761 428.25 506.404 427.23C508.047 426.21 509.889 425.7 511.929 425.7H539.979C542.019 425.7 543.861 426.21 545.504 427.23C547.204 428.193 548.536 429.525 549.499 431.225C550.519 432.925 551.029 434.767 551.029 436.75V454.94H510.059V463.695C510.059 464.262 510.257 464.772 510.654 465.225C511.107 465.622 511.617 465.82 512.184 465.82H551.029V475H511.929ZM510.059 446.355H541.764V437.005C541.764 436.438 541.566 435.957 541.169 435.56C540.772 435.107 540.291 434.88 539.724 434.88H512.184C511.617 434.88 511.107 435.107 510.654 435.56C510.257 435.957 510.059 436.438 510.059 437.005V446.355ZM584.64 475V425.7H647.625C649.721 425.7 651.591 426.21 653.235 427.23C654.878 428.25 656.181 429.582 657.145 431.225C658.165 432.868 658.675 434.71 658.675 436.75V475H649.58V437.005C649.58 436.438 649.353 435.957 648.9 435.56C648.503 435.107 648.021 434.88 647.455 434.88H628.5C627.876 434.88 627.366 435.107 626.97 435.56C626.573 435.957 626.375 436.438 626.375 437.005V475H617.11V437.005C617.11 436.438 616.883 435.957 616.43 435.56C616.033 435.107 615.551 434.88 614.985 434.88H595.945C595.378 434.88 594.896 435.107 594.5 435.56C594.103 435.957 593.905 436.438 593.905 437.005V475H584.64ZM677.615 475C675.575 475 673.705 474.49 672.005 473.47C670.361 472.45 669.03 471.118 668.01 469.475C667.046 467.832 666.565 465.99 666.565 463.95V445.76H707.45V437.005C707.45 436.438 707.251 435.957 706.855 435.56C706.458 435.107 705.976 434.88 705.41 434.88H666.565V425.7H705.665C707.705 425.7 709.546 426.21 711.19 427.23C712.89 428.193 714.221 429.525 715.185 431.225C716.205 432.925 716.715 434.767 716.715 436.75V475H677.615ZM677.87 465.82H707.45V454.345H675.745V463.695C675.745 464.262 675.943 464.772 676.34 465.225C676.793 465.622 677.303 465.82 677.87 465.82ZM725.753 494.55V425.7H764.853C766.893 425.7 768.735 426.21 770.378 427.23C772.078 428.25 773.41 429.582 774.373 431.225C775.393 432.868 775.903 434.71 775.903 436.75V463.95C775.903 465.99 775.393 467.832 774.373 469.475C773.41 471.118 772.078 472.45 770.378 473.47C768.735 474.49 766.893 475 764.853 475H734.933V494.55H725.753ZM737.058 465.82H764.598C765.165 465.82 765.646 465.622 766.043 465.225C766.496 464.772 766.723 464.262 766.723 463.695V437.005C766.723 436.438 766.496 435.957 766.043 435.56C765.646 435.107 765.165 434.88 764.598 434.88H737.058C736.491 434.88 735.981 435.107 735.528 435.56C735.131 435.957 734.933 436.438 734.933 437.005V463.695C734.933 464.262 735.131 464.772 735.528 465.225C735.981 465.622 736.491 465.82 737.058 465.82ZM793.236 475C791.196 475 789.355 474.49 787.711 473.47C786.068 472.45 784.736 471.118 783.716 469.475C782.696 467.832 782.186 465.99 782.186 463.95V462.675H791.366V463.695C791.366 464.262 791.565 464.772 791.961 465.225C792.415 465.622 792.925 465.82 793.491 465.82H821.031C821.598 465.82 822.08 465.622 822.476 465.225C822.873 464.772 823.071 464.262 823.071 463.695V457.065C823.071 456.498 822.873 456.017 822.476 455.62C822.08 455.167 821.598 454.94 821.031 454.94H793.236C791.196 454.94 789.355 454.458 787.711 453.495C786.068 452.475 784.736 451.143 783.716 449.5C782.696 447.8 782.186 445.93 782.186 443.89V436.75C782.186 434.71 782.696 432.868 783.716 431.225C784.736 429.582 786.068 428.25 787.711 427.23C789.355 426.21 791.196 425.7 793.236 425.7H821.286C823.326 425.7 825.168 426.21 826.811 427.23C828.511 428.25 829.843 429.582 830.806 431.225C831.826 432.868 832.336 434.71 832.336 436.75V438.025H823.071V437.005C823.071 436.438 822.873 435.957 822.476 435.56C822.08 435.107 821.598 434.88 821.031 434.88H793.491C792.925 434.88 792.415 435.107 791.961 435.56C791.565 435.957 791.366 436.438 791.366 437.005V443.635C791.366 444.202 791.565 444.712 791.961 445.165C792.415 445.562 792.925 445.76 793.491 445.76H821.286C823.326 445.76 825.168 446.27 826.811 447.29C828.511 448.253 829.843 449.585 830.806 451.285C831.826 452.928 832.336 454.77 832.336 456.81V463.95C832.336 465.99 831.826 467.832 830.806 469.475C829.843 471.118 828.511 472.45 826.811 473.47C825.168 474.49 823.326 475 821.286 475H793.236Z" fill="#494368"/>
</g>
<defs>
<linearGradient id="paint0_linear_1868_114" x1="513.5" y1="14.4004" x2="513.5" y2="317.2" gradientUnits="userSpaceOnUse">
<stop stop-color="#00CF91"/>
<stop offset="1" stop-color="white" stop-opacity="0"/>
</linearGradient>
<clipPath id="clip0_1868_114">
<rect width="1000" height="518" fill="white"/>
</clipPath>
</defs>
</svg>
